<mxfile host="Electron" modified="2023-06-09T16:13:34.900Z" agent="Mozilla/5.0 (Windows NT 10.0; Win64; x64) AppleWebKit/537.36 (KHTML, like Gecko) draw.io/21.3.7 Chrome/112.0.5615.204 Electron/24.5.0 Safari/537.36" etag="OSQFtUV6z4LYxtNwbFkQ" version="21.3.7" type="device">
  <diagram name="Pagina-1" id="U_rJbm2MmV8iFG0XdDmN">
    <mxGraphModel dx="2876" dy="1206" grid="0" gridSize="1" guides="1" tooltips="1" connect="1" arrows="1" fold="1" page="1" pageScale="1" pageWidth="827" pageHeight="1169" math="0" shadow="0">
      <root>
        <mxCell id="0" />
        <mxCell id="1" parent="0" />
        <mxCell id="nG7u1KFv7GBlKVnMhDTf-7" value="" style="rounded=0;whiteSpace=wrap;html=1;" vertex="1" parent="1">
          <mxGeometry x="-707" y="21" width="608" height="750" as="geometry" />
        </mxCell>
        <mxCell id="nG7u1KFv7GBlKVnMhDTf-34" style="edgeStyle=orthogonalEdgeStyle;rounded=0;orthogonalLoop=1;jettySize=auto;html=1;exitX=0.5;exitY=0.5;exitDx=0;exitDy=0;exitPerimeter=0;entryX=0;entryY=0.5;entryDx=0;entryDy=0;" edge="1" parent="1" source="nG7u1KFv7GBlKVnMhDTf-1" target="nG7u1KFv7GBlKVnMhDTf-32">
          <mxGeometry relative="1" as="geometry" />
        </mxCell>
        <mxCell id="nG7u1KFv7GBlKVnMhDTf-1" value="Shopkeeper" style="shape=umlActor;verticalLabelPosition=bottom;verticalAlign=top;html=1;outlineConnect=0;" vertex="1" parent="1">
          <mxGeometry x="-789" y="151" width="40" height="70" as="geometry" />
        </mxCell>
        <mxCell id="nG7u1KFv7GBlKVnMhDTf-9" value="Credit payment&lt;br&gt;service" style="shape=umlActor;verticalLabelPosition=bottom;verticalAlign=top;html=1;outlineConnect=0;" vertex="1" parent="1">
          <mxGeometry x="-79" y="511" width="40" height="70" as="geometry" />
        </mxCell>
        <mxCell id="nG7u1KFv7GBlKVnMhDTf-12" value="User" style="shape=umlActor;verticalLabelPosition=bottom;verticalAlign=top;html=1;outlineConnect=0;" vertex="1" parent="1">
          <mxGeometry x="-789" y="511" width="40" height="70" as="geometry" />
        </mxCell>
        <mxCell id="nG7u1KFv7GBlKVnMhDTf-13" value="Google API" style="shape=umlActor;verticalLabelPosition=bottom;verticalAlign=top;html=1;outlineConnect=0;" vertex="1" parent="1">
          <mxGeometry x="-79" y="151" width="40" height="70" as="geometry" />
        </mxCell>
        <mxCell id="nG7u1KFv7GBlKVnMhDTf-14" value="Login" style="ellipse;whiteSpace=wrap;html=1;" vertex="1" parent="1">
          <mxGeometry x="-400" y="381" width="60" height="40" as="geometry" />
        </mxCell>
        <mxCell id="nG7u1KFv7GBlKVnMhDTf-15" value="Registration" style="ellipse;whiteSpace=wrap;html=1;" vertex="1" parent="1">
          <mxGeometry x="-660" y="681" width="75" height="50" as="geometry" />
        </mxCell>
        <mxCell id="nG7u1KFv7GBlKVnMhDTf-21" value="" style="edgeStyle=orthogonalEdgeStyle;rounded=0;orthogonalLoop=1;jettySize=auto;html=1;" edge="1" parent="1" source="nG7u1KFv7GBlKVnMhDTf-20" target="nG7u1KFv7GBlKVnMhDTf-14">
          <mxGeometry relative="1" as="geometry">
            <Array as="points">
              <mxPoint x="-310" y="401" />
              <mxPoint x="-310" y="401" />
            </Array>
          </mxGeometry>
        </mxCell>
        <mxCell id="nG7u1KFv7GBlKVnMhDTf-27" value="Extends" style="edgeLabel;html=1;align=center;verticalAlign=middle;resizable=0;points=[];" vertex="1" connectable="0" parent="nG7u1KFv7GBlKVnMhDTf-21">
          <mxGeometry x="-0.2" y="2" relative="1" as="geometry">
            <mxPoint as="offset" />
          </mxGeometry>
        </mxCell>
        <mxCell id="nG7u1KFv7GBlKVnMhDTf-20" value="Login with Google" style="ellipse;whiteSpace=wrap;html=1;" vertex="1" parent="1">
          <mxGeometry x="-210" y="371" width="90" height="50" as="geometry" />
        </mxCell>
        <mxCell id="nG7u1KFv7GBlKVnMhDTf-29" style="edgeStyle=orthogonalEdgeStyle;rounded=0;orthogonalLoop=1;jettySize=auto;html=1;exitX=1;exitY=0.5;exitDx=0;exitDy=0;entryX=0;entryY=0;entryDx=0;entryDy=0;" edge="1" parent="1" source="nG7u1KFv7GBlKVnMhDTf-28" target="nG7u1KFv7GBlKVnMhDTf-14">
          <mxGeometry relative="1" as="geometry" />
        </mxCell>
        <mxCell id="nG7u1KFv7GBlKVnMhDTf-30" value="Includes" style="edgeLabel;html=1;align=center;verticalAlign=middle;resizable=0;points=[];" vertex="1" connectable="0" parent="nG7u1KFv7GBlKVnMhDTf-29">
          <mxGeometry x="-0.1842" y="-1" relative="1" as="geometry">
            <mxPoint as="offset" />
          </mxGeometry>
        </mxCell>
        <mxCell id="nG7u1KFv7GBlKVnMhDTf-28" value="Manage sale" style="ellipse;whiteSpace=wrap;html=1;" vertex="1" parent="1">
          <mxGeometry x="-600" y="291" width="75" height="50" as="geometry" />
        </mxCell>
        <mxCell id="nG7u1KFv7GBlKVnMhDTf-36" style="edgeStyle=orthogonalEdgeStyle;rounded=0;orthogonalLoop=1;jettySize=auto;html=1;exitX=1;exitY=0.5;exitDx=0;exitDy=0;entryX=0.5;entryY=0;entryDx=0;entryDy=0;" edge="1" parent="1" source="nG7u1KFv7GBlKVnMhDTf-32" target="nG7u1KFv7GBlKVnMhDTf-14">
          <mxGeometry relative="1" as="geometry">
            <Array as="points">
              <mxPoint x="-525" y="181" />
              <mxPoint x="-370" y="181" />
            </Array>
          </mxGeometry>
        </mxCell>
        <mxCell id="nG7u1KFv7GBlKVnMhDTf-38" value="Includes" style="edgeLabel;html=1;align=center;verticalAlign=middle;resizable=0;points=[];" vertex="1" connectable="0" parent="nG7u1KFv7GBlKVnMhDTf-36">
          <mxGeometry x="-0.4845" relative="1" as="geometry">
            <mxPoint x="-8" as="offset" />
          </mxGeometry>
        </mxCell>
        <mxCell id="nG7u1KFv7GBlKVnMhDTf-32" value="Manage shoe price" style="ellipse;whiteSpace=wrap;html=1;" vertex="1" parent="1">
          <mxGeometry x="-615" y="156" width="90" height="60" as="geometry" />
        </mxCell>
        <mxCell id="nG7u1KFv7GBlKVnMhDTf-37" style="edgeStyle=orthogonalEdgeStyle;rounded=0;orthogonalLoop=1;jettySize=auto;html=1;exitX=1;exitY=0.5;exitDx=0;exitDy=0;entryX=1;entryY=0;entryDx=0;entryDy=0;" edge="1" parent="1" source="nG7u1KFv7GBlKVnMhDTf-33" target="nG7u1KFv7GBlKVnMhDTf-14">
          <mxGeometry relative="1" as="geometry">
            <Array as="points" />
          </mxGeometry>
        </mxCell>
        <mxCell id="nG7u1KFv7GBlKVnMhDTf-39" value="Includes" style="edgeLabel;html=1;align=center;verticalAlign=middle;resizable=0;points=[];" vertex="1" connectable="0" parent="nG7u1KFv7GBlKVnMhDTf-37">
          <mxGeometry x="-0.8035" y="-1" relative="1" as="geometry">
            <mxPoint x="16" y="-1" as="offset" />
          </mxGeometry>
        </mxCell>
        <mxCell id="nG7u1KFv7GBlKVnMhDTf-33" value="Manage shoe amount" style="ellipse;whiteSpace=wrap;html=1;" vertex="1" parent="1">
          <mxGeometry x="-622.5" y="41" width="105" height="70" as="geometry" />
        </mxCell>
        <mxCell id="nG7u1KFv7GBlKVnMhDTf-41" value="" style="endArrow=classic;html=1;rounded=0;entryX=0;entryY=0.5;entryDx=0;entryDy=0;exitX=0.5;exitY=0.5;exitDx=0;exitDy=0;exitPerimeter=0;" edge="1" parent="1" source="nG7u1KFv7GBlKVnMhDTf-1" target="nG7u1KFv7GBlKVnMhDTf-28">
          <mxGeometry width="50" height="50" relative="1" as="geometry">
            <mxPoint x="-780" y="271" as="sourcePoint" />
            <mxPoint x="-730" y="221" as="targetPoint" />
          </mxGeometry>
        </mxCell>
        <mxCell id="nG7u1KFv7GBlKVnMhDTf-42" value="" style="endArrow=classic;html=1;rounded=0;entryX=0;entryY=0.5;entryDx=0;entryDy=0;exitX=0.5;exitY=0.5;exitDx=0;exitDy=0;exitPerimeter=0;" edge="1" parent="1" source="nG7u1KFv7GBlKVnMhDTf-1" target="nG7u1KFv7GBlKVnMhDTf-33">
          <mxGeometry width="50" height="50" relative="1" as="geometry">
            <mxPoint x="-720" y="141" as="sourcePoint" />
            <mxPoint x="-670" y="91" as="targetPoint" />
          </mxGeometry>
        </mxCell>
        <mxCell id="nG7u1KFv7GBlKVnMhDTf-43" value="" style="endArrow=classic;html=1;rounded=0;exitX=0.5;exitY=0.5;exitDx=0;exitDy=0;exitPerimeter=0;entryX=0;entryY=0.5;entryDx=0;entryDy=0;" edge="1" parent="1" source="nG7u1KFv7GBlKVnMhDTf-12" target="nG7u1KFv7GBlKVnMhDTf-15">
          <mxGeometry width="50" height="50" relative="1" as="geometry">
            <mxPoint x="-730" y="561" as="sourcePoint" />
            <mxPoint x="-680" y="511" as="targetPoint" />
          </mxGeometry>
        </mxCell>
        <mxCell id="nG7u1KFv7GBlKVnMhDTf-44" value="Edit profile" style="ellipse;whiteSpace=wrap;html=1;" vertex="1" parent="1">
          <mxGeometry x="-622.5" y="446" width="75" height="50" as="geometry" />
        </mxCell>
        <mxCell id="nG7u1KFv7GBlKVnMhDTf-45" value="" style="endArrow=classic;html=1;rounded=0;entryX=0;entryY=0.5;entryDx=0;entryDy=0;exitX=0.5;exitY=0.5;exitDx=0;exitDy=0;exitPerimeter=0;" edge="1" parent="1" source="nG7u1KFv7GBlKVnMhDTf-12" target="nG7u1KFv7GBlKVnMhDTf-44">
          <mxGeometry width="50" height="50" relative="1" as="geometry">
            <mxPoint x="-810" y="551" as="sourcePoint" />
            <mxPoint x="-720" y="521" as="targetPoint" />
          </mxGeometry>
        </mxCell>
        <mxCell id="nG7u1KFv7GBlKVnMhDTf-46" value="" style="endArrow=classic;html=1;rounded=0;exitX=1;exitY=0.5;exitDx=0;exitDy=0;entryX=0;entryY=0.5;entryDx=0;entryDy=0;" edge="1" parent="1" source="nG7u1KFv7GBlKVnMhDTf-44" target="nG7u1KFv7GBlKVnMhDTf-14">
          <mxGeometry width="50" height="50" relative="1" as="geometry">
            <mxPoint x="-540" y="471" as="sourcePoint" />
            <mxPoint x="-490" y="421" as="targetPoint" />
            <Array as="points">
              <mxPoint x="-500" y="471" />
            </Array>
          </mxGeometry>
        </mxCell>
        <mxCell id="nG7u1KFv7GBlKVnMhDTf-47" value="Includes" style="edgeLabel;html=1;align=center;verticalAlign=middle;resizable=0;points=[];" vertex="1" connectable="0" parent="nG7u1KFv7GBlKVnMhDTf-46">
          <mxGeometry x="-0.2892" y="-1" relative="1" as="geometry">
            <mxPoint x="19" y="-17" as="offset" />
          </mxGeometry>
        </mxCell>
        <mxCell id="nG7u1KFv7GBlKVnMhDTf-48" value="Buy shoe" style="ellipse;whiteSpace=wrap;html=1;" vertex="1" parent="1">
          <mxGeometry x="-407.5" y="701" width="75" height="50" as="geometry" />
        </mxCell>
        <mxCell id="nG7u1KFv7GBlKVnMhDTf-49" value="" style="endArrow=classic;html=1;rounded=0;entryX=0;entryY=0.5;entryDx=0;entryDy=0;exitX=0.5;exitY=0.5;exitDx=0;exitDy=0;exitPerimeter=0;" edge="1" parent="1" source="nG7u1KFv7GBlKVnMhDTf-12" target="nG7u1KFv7GBlKVnMhDTf-48">
          <mxGeometry width="50" height="50" relative="1" as="geometry">
            <mxPoint x="-810" y="551" as="sourcePoint" />
            <mxPoint x="-230" y="351" as="targetPoint" />
          </mxGeometry>
        </mxCell>
        <mxCell id="nG7u1KFv7GBlKVnMhDTf-51" value="" style="endArrow=classic;html=1;rounded=0;exitX=1;exitY=0.5;exitDx=0;exitDy=0;entryX=0.5;entryY=0.5;entryDx=0;entryDy=0;entryPerimeter=0;" edge="1" parent="1" source="nG7u1KFv7GBlKVnMhDTf-48" target="nG7u1KFv7GBlKVnMhDTf-9">
          <mxGeometry width="50" height="50" relative="1" as="geometry">
            <mxPoint x="-380" y="431" as="sourcePoint" />
            <mxPoint x="-330" y="381" as="targetPoint" />
            <Array as="points">
              <mxPoint x="-120" y="726" />
              <mxPoint x="-120" y="546" />
            </Array>
          </mxGeometry>
        </mxCell>
        <mxCell id="nG7u1KFv7GBlKVnMhDTf-53" value="" style="endArrow=classic;html=1;rounded=0;exitX=0.5;exitY=0;exitDx=0;exitDy=0;entryX=0.5;entryY=0.5;entryDx=0;entryDy=0;entryPerimeter=0;" edge="1" parent="1" source="nG7u1KFv7GBlKVnMhDTf-20" target="nG7u1KFv7GBlKVnMhDTf-13">
          <mxGeometry width="50" height="50" relative="1" as="geometry">
            <mxPoint x="-100" y="391" as="sourcePoint" />
            <mxPoint x="-50" y="341" as="targetPoint" />
            <Array as="points">
              <mxPoint x="-165" y="186" />
            </Array>
          </mxGeometry>
        </mxCell>
        <mxCell id="nG7u1KFv7GBlKVnMhDTf-56" value="Sell shoe" style="ellipse;whiteSpace=wrap;html=1;" vertex="1" parent="1">
          <mxGeometry x="-650" y="521" width="75" height="50" as="geometry" />
        </mxCell>
        <mxCell id="nG7u1KFv7GBlKVnMhDTf-58" value="" style="endArrow=classic;html=1;rounded=0;entryX=0.5;entryY=1;entryDx=0;entryDy=0;exitX=0.5;exitY=0;exitDx=0;exitDy=0;" edge="1" parent="1" source="nG7u1KFv7GBlKVnMhDTf-48" target="nG7u1KFv7GBlKVnMhDTf-14">
          <mxGeometry width="50" height="50" relative="1" as="geometry">
            <mxPoint x="-450" y="511" as="sourcePoint" />
            <mxPoint x="-400" y="461" as="targetPoint" />
          </mxGeometry>
        </mxCell>
        <mxCell id="nG7u1KFv7GBlKVnMhDTf-59" value="Includes" style="edgeLabel;html=1;align=center;verticalAlign=middle;resizable=0;points=[];" vertex="1" connectable="0" parent="nG7u1KFv7GBlKVnMhDTf-58">
          <mxGeometry x="0.2523" y="3" relative="1" as="geometry">
            <mxPoint x="-12" y="14" as="offset" />
          </mxGeometry>
        </mxCell>
        <mxCell id="nG7u1KFv7GBlKVnMhDTf-60" value="" style="endArrow=classic;html=1;rounded=0;exitX=1;exitY=0.5;exitDx=0;exitDy=0;entryX=0;entryY=1;entryDx=0;entryDy=0;" edge="1" parent="1" source="nG7u1KFv7GBlKVnMhDTf-56" target="nG7u1KFv7GBlKVnMhDTf-14">
          <mxGeometry width="50" height="50" relative="1" as="geometry">
            <mxPoint x="-590" y="601" as="sourcePoint" />
            <mxPoint x="-540" y="551" as="targetPoint" />
            <Array as="points">
              <mxPoint x="-470" y="546" />
            </Array>
          </mxGeometry>
        </mxCell>
        <mxCell id="nG7u1KFv7GBlKVnMhDTf-61" value="Includes" style="edgeLabel;html=1;align=center;verticalAlign=middle;resizable=0;points=[];" vertex="1" connectable="0" parent="nG7u1KFv7GBlKVnMhDTf-60">
          <mxGeometry x="-0.0349" y="2" relative="1" as="geometry">
            <mxPoint as="offset" />
          </mxGeometry>
        </mxCell>
        <mxCell id="nG7u1KFv7GBlKVnMhDTf-62" value="Calculate recommended price" style="ellipse;whiteSpace=wrap;html=1;" vertex="1" parent="1">
          <mxGeometry x="-525" y="576" width="82.5" height="55" as="geometry" />
        </mxCell>
        <mxCell id="nG7u1KFv7GBlKVnMhDTf-63" value="" style="endArrow=classic;html=1;rounded=0;entryX=0.5;entryY=1;entryDx=0;entryDy=0;exitX=0;exitY=0.5;exitDx=0;exitDy=0;" edge="1" parent="1" source="nG7u1KFv7GBlKVnMhDTf-62" target="nG7u1KFv7GBlKVnMhDTf-56">
          <mxGeometry width="50" height="50" relative="1" as="geometry">
            <mxPoint x="-590" y="651" as="sourcePoint" />
            <mxPoint x="-540" y="601" as="targetPoint" />
          </mxGeometry>
        </mxCell>
        <mxCell id="nG7u1KFv7GBlKVnMhDTf-64" value="Extends" style="edgeLabel;html=1;align=center;verticalAlign=middle;resizable=0;points=[];" vertex="1" connectable="0" parent="nG7u1KFv7GBlKVnMhDTf-63">
          <mxGeometry x="-0.2559" y="1" relative="1" as="geometry">
            <mxPoint x="-12" y="-5" as="offset" />
          </mxGeometry>
        </mxCell>
        <mxCell id="nG7u1KFv7GBlKVnMhDTf-65" value="" style="endArrow=classic;html=1;rounded=0;exitX=0.5;exitY=0.5;exitDx=0;exitDy=0;exitPerimeter=0;entryX=0;entryY=0.5;entryDx=0;entryDy=0;" edge="1" parent="1" source="nG7u1KFv7GBlKVnMhDTf-12" target="nG7u1KFv7GBlKVnMhDTf-28">
          <mxGeometry width="50" height="50" relative="1" as="geometry">
            <mxPoint x="-800" y="451" as="sourcePoint" />
            <mxPoint x="-750" y="401" as="targetPoint" />
          </mxGeometry>
        </mxCell>
        <mxCell id="nG7u1KFv7GBlKVnMhDTf-68" value="" style="endArrow=classic;html=1;rounded=0;exitX=0.5;exitY=0.5;exitDx=0;exitDy=0;exitPerimeter=0;entryX=0;entryY=0.5;entryDx=0;entryDy=0;" edge="1" parent="1" source="nG7u1KFv7GBlKVnMhDTf-12" target="nG7u1KFv7GBlKVnMhDTf-56">
          <mxGeometry width="50" height="50" relative="1" as="geometry">
            <mxPoint x="-750" y="561" as="sourcePoint" />
            <mxPoint x="-700" y="511" as="targetPoint" />
          </mxGeometry>
        </mxCell>
      </root>
    </mxGraphModel>
  </diagram>
</mxfile>
